<svg width="36" height="35" viewBox="0 0 36 35" fill="none" xmlns="http://www.w3.org/2000/svg">
<g clip-path="url(#clip0_12001_6974)">
<path d="M13.3811 17.322C13.3811 18.2277 13.6497 19.1132 14.1529 19.8663C14.6562 20.6195 15.3714 21.2065 16.2083 21.5531C17.0451 21.8997 17.9659 21.9904 18.8543 21.8137C19.7427 21.637 20.5588 21.2008 21.1993 20.5603C21.8397 19.9198 22.2759 19.1038 22.4526 18.2154C22.6293 17.327 22.5386 16.4062 22.192 15.5694C21.8454 14.7325 21.2584 14.0173 20.5052 13.514C19.7521 13.0108 18.8667 12.7422 17.9609 12.7422C16.7462 12.7422 15.5814 13.2247 14.7225 14.0836C13.8636 14.9424 13.3811 16.1073 13.3811 17.322Z" fill="#FFFAD2"/>
<path d="M15.3225 7.85019C15.3225 8.37218 15.4773 8.88246 15.7673 9.31648C16.0573 9.7505 16.4695 10.0888 16.9518 10.2885C17.434 10.4883 17.9647 10.5406 18.4767 10.4387C18.9886 10.3369 19.4589 10.0855 19.828 9.71642C20.1971 9.34731 20.4485 8.87705 20.5503 8.36508C20.6521 7.85312 20.5999 7.32245 20.4001 6.84019C20.2003 6.35793 19.8621 5.94573 19.4281 5.65573C18.994 5.36572 18.4838 5.21094 17.9618 5.21094C17.2618 5.21094 16.5905 5.489 16.0955 5.98395C15.6006 6.47891 15.3225 7.15022 15.3225 7.85019Z" fill="#FFFAD2"/>
<path d="M21.6873 7.38233C21.6873 7.5376 21.7649 7.69288 21.7649 7.84815C21.7769 8.49935 21.6162 9.1421 21.2991 9.71102C23.0331 10.4974 24.4438 11.8562 25.2944 13.5596C26.1451 15.2629 26.3839 17.207 25.9709 19.0656C25.5578 20.9242 24.518 22.5841 23.0259 23.7668C21.5338 24.9495 19.6803 25.5829 17.7765 25.5607C15.8727 25.5386 14.0345 24.8622 12.5703 23.6452C11.1062 22.4281 10.1052 20.7445 9.73551 18.8768C9.36578 17.0091 9.64977 15.0711 10.5398 13.388C11.4299 11.7049 12.8718 10.3792 14.6236 9.63338C14.3065 9.06445 14.1458 8.42171 14.1577 7.77051C14.1454 7.61124 14.1721 7.45137 14.2354 7.30469C11.8628 8.15437 9.86455 9.81133 8.59036 11.9856C7.31616 14.1599 6.84717 16.713 7.26543 19.1982C7.68368 21.6834 8.96257 23.9424 10.8783 25.5798C12.794 27.2172 15.2245 28.1289 17.7445 28.1551C20.2645 28.1814 22.7135 27.3206 24.6629 25.7234C26.6123 24.1263 27.938 21.8944 28.4079 19.4185C28.8779 16.9426 28.4622 14.3802 27.2336 12.1799C26.0049 9.97949 24.0417 8.28125 21.6873 7.38233Z" fill="#FFFAD2"/>
<path d="M2.82495 27.2564C2.82495 27.7784 2.97974 28.2887 3.26974 28.7227C3.55975 29.1568 3.97194 29.495 4.45421 29.6948C4.93647 29.8946 5.46713 29.9468 5.9791 29.845C6.49106 29.7431 6.96133 29.4918 7.33044 29.1227C7.69954 28.7536 7.95091 28.2833 8.05274 27.7713C8.15458 27.2594 8.10231 26.7287 7.90255 26.2464C7.70279 25.7642 7.36451 25.352 6.93049 25.062C6.49647 24.772 5.9862 24.6172 5.4642 24.6172C5.11761 24.6172 4.77441 24.6854 4.45421 24.8181C4.134 24.9507 3.84305 25.1451 3.59797 25.3902C3.35289 25.6353 3.15849 25.9262 3.02585 26.2464C2.89322 26.5666 2.82495 26.9098 2.82495 27.2564Z" fill="#FFFAD2"/>
<path d="M29.6826 24.6182C29.6826 25.0634 29.8147 25.4987 30.062 25.8689C30.3094 26.239 30.6609 26.5276 31.0722 26.6979C31.4836 26.8683 31.9362 26.9129 32.3728 26.826C32.8095 26.7392 33.2106 26.5248 33.5254 26.21C33.8402 25.8952 34.0546 25.4941 34.1415 25.0574C34.2284 24.6207 34.1838 24.1681 34.0134 23.7568C33.843 23.3455 33.5545 22.9939 33.1843 22.7465C32.8141 22.4992 32.3789 22.3672 31.9337 22.3672C31.3367 22.3672 30.7641 22.6043 30.3419 23.0265C29.9198 23.4487 29.6826 24.0212 29.6826 24.6182Z" fill="#FFFAD2"/>
<path d="M29.3716 26.7894C27.9789 28.4644 26.2346 29.8125 24.2626 30.738C22.2905 31.6635 20.139 32.1437 17.9606 32.1447C14.6574 32.1597 11.4499 31.0356 8.87869 28.962C8.50168 29.6494 7.93619 30.2149 7.24873 30.5919C10.2713 33.0619 14.0572 34.4066 17.9606 34.3966C20.527 34.3941 23.0599 33.8136 25.3712 32.6983C27.6826 31.583 29.7132 29.9614 31.3121 27.954C30.5557 27.7874 29.8744 27.3785 29.3716 26.7894ZM4.53184 23.6067C3.59539 21.6438 3.11766 19.4936 3.1348 17.3189C3.1348 13.3868 4.6968 9.61585 7.47717 6.83548C10.2575 4.05511 14.0285 2.49311 17.9606 2.49311C21.8926 2.49311 25.6636 4.05511 28.444 6.83548C31.2244 9.61585 32.7864 13.3868 32.7864 17.3189C32.7635 18.63 32.581 19.9334 32.2429 21.2003C33.0309 21.2485 33.775 21.5793 34.3387 22.132C34.8041 20.5701 35.0397 18.9487 35.0379 17.3189C35.0366 14.7521 34.4568 12.2187 33.3414 9.90686C32.2261 7.59507 30.604 5.56443 28.5958 3.96593C26.5875 2.36742 24.2448 1.24217 21.7417 0.673857C19.2387 0.10554 16.6397 0.108772 14.138 0.683311C11.6364 1.25785 9.29646 2.38892 7.29218 3.99241C5.28791 5.5959 3.67088 7.63057 2.56132 9.94513C1.45176 12.2597 0.878214 14.7946 0.883335 17.3614C0.888456 19.9281 1.47211 22.4607 2.5909 24.7708C3.10673 24.1973 3.78267 23.7917 4.53141 23.6062L4.53184 23.6067Z" fill="#FFFAD2"/>
</g>
<defs>
<clipPath id="clip0_12001_6974">
<rect width="34.155" height="34.155" fill="white" transform="translate(0.883057 0.242188)"/>
</clipPath>
</defs>
</svg>
